MoBL_ARMS_shoulder_elvation_states	
version=1	
nRows=251	
nColumns=2	
inDegrees=yes	
	
# SIMM Motion File Header:	
name MoBL_ARMS_shoulder_elvation_states	
datacolumns 2	
datarows 251	
otherdata 1	
range 0 0.559412758	
endheader	
time	shoulder_elv
0	30.00000087
0.007533128	29.9912456
0.008901697	29.98777886
0.010871844	29.98177195
0.015303198	29.96388887
0.016589175	29.95757119
0.018411411	29.94774462
0.02172472	29.9272613
0.02351633	29.91478354
0.025687751	29.8983382
0.028135216	29.87807241
0.030152245	29.85998898
0.032169273	29.84066434
0.034186301	29.82009379
0.036627952	29.79353356
0.038640838	29.77026666
0.040653724	29.7457685
0.04266661	29.72003456
0.04512863	29.68688646
0.047147659	29.65832561
0.049166688	29.62853152
0.051185718	29.59749986
0.05364825	29.55798479
0.055671006	29.5241525
0.057693763	29.48908874
0.059716519	29.45278937
0.062185369	29.40681876
0.064213041	29.36768982
0.066240712	29.32733057
0.068268384	29.28573702
0.070743089	29.23330982
0.072774756	29.18889817
0.074806422	29.14325925
0.076838089	29.09638928
0.079321902	29.03742505
0.081355297	28.98778815
0.083388692	28.9369306
0.085422086	28.88484881
0.087920852	28.81918019
0.089950889	28.76447376
0.091980926	28.70856013
0.094010962	28.65143599
0.096534106	28.5787584
0.098552247	28.51928632
0.100570387	28.45863121
0.102588528	28.39679007
0.105147391	28.31668433
0.107142921	28.25289611
0.109138451	28.18796181
0.111133981	28.12187874
0.113744419	28.03370838
0.1157285	27.9653849
0.117712581	27.89593969
0.119696662	27.82537015
0.12228896	27.73148363
0.12427406	27.65829696
0.12625916	27.58399934
0.12824426	27.50858799
0.130733695	27.41245392
0.132760559	27.33289616
0.134787422	27.25219316
0.136814286	27.17034204
0.138841149	27.08735087
0.141411579	26.9804628
0.143168196	26.90636879
0.144924812	26.83142246
0.147670824	26.71256739
0.150065981	26.60721095
0.15196338	26.52264228
0.153860779	26.43709237
0.15631038	26.32520485
0.158509182	26.22339049
0.160707984	26.12028003
0.16262679	26.02923673
0.164545595	25.93721374
0.166889388	25.82347714
0.169233181	25.70828782
0.171066939	25.61714908
0.172900697	25.52512911
0.175372613	25.39968865
0.177844528	25.27265666
0.17971153	25.17565393
0.181578532	25.07775259
0.183933369	24.95298607
0.186288207	24.82679947
0.188263316	24.71986383
0.190238425	24.61193876
0.192213534	24.50302295
0.194868579	24.35506462
0.196848395	24.24357934
0.198828211	24.13111791
0.200808027	24.01767909
0.203392758	23.86812152
0.205388007	23.75154575
0.207383256	23.63399674
0.209378505	23.51547347
0.211954811	23.36100597
0.213998255	23.23734411
0.216041699	23.11268307
0.218085142	22.98702154
0.220606069	22.83063382
0.22250413	22.71189096
0.22440219	22.59230469
0.226734419	22.44420863
0.229010123	22.29848553
0.231285826	22.15156217
0.23316594	22.02928779
0.235046053	21.90620254
0.237492819	21.74482051
0.239939584	21.58208483
0.241741189	21.46140615
0.243542794	21.34000148
0.246343628	21.14983922
0.248388606	21.00990497
0.250433583	20.86906128
0.252478561	20.72730873
0.255103508	20.54403923
0.257137853	20.40098944
0.259172197	20.25706617
0.261206541	20.11226964
0.263905978	19.91880447
0.265745943	19.78606644
0.267585909	19.65263773
0.270179568	19.46337805
0.272107605	19.32180869
0.274490963	19.1457733
0.276874321	18.96861654
0.278805485	18.82424474
0.280736649	18.67914779
0.283158829	18.4961342
0.285271488	18.33559123
0.287384148	18.17419657
0.289496807	18.01196474
0.291609467	17.84889775
0.293722126	17.68500978
0.295834786	17.52030277
0.298532506	17.30881379
0.300487684	17.15472159
0.302442862	16.99995558
0.30439804	16.84451771
0.307370058	16.60697832
0.309323435	16.45002809
0.311276812	16.29243807
0.313230189	16.13420923
0.31616849	15.89502121
0.318113655	15.73590409
0.32005882	15.57618427
0.322532738	15.37217927
0.325006655	15.16722747
0.327075643	14.9950959
0.329144631	14.82232144
0.331213618	14.64890745
0.333642222	14.44455511
0.336070826	14.23935166
0.338028465	14.07333862
0.339986104	13.90678791
0.342682294	13.67655118
0.344615761	13.51084195
0.346549227	13.34464399
0.348974752	13.13546303
0.351203211	12.94262373
0.353431669	12.74916627
0.355660127	12.55511137
0.357888586	12.36046886
0.360117044	12.16525653
0.362812168	11.92841151
0.364460228	11.78319292
0.366108287	11.63767999
0.368965874	11.3847056
0.371823461	11.13090863
0.374195269	10.91965482
0.376567077	10.707869
0.378536704	10.53161193
0.380506332	10.35501221
0.382985439	10.132267
0.385464547	9.909030788
0.387621281	9.714436317
0.389778016	9.519494567
0.392016091	9.316857199
0.394254166	9.113882146
0.396488173	8.910962273
0.398722181	8.707741685
0.40099439	8.500761885
0.403266599	8.293509766
0.405525898	8.087190719
0.407785197	7.880641731
0.409999651	7.677992839
0.412214105	7.475162552
0.414547869	7.261232761
0.416881633	7.047147359
0.419446297	6.811730889
0.422010962	6.576186863
0.424014916	6.392071922
0.42601887	6.207910523
0.428232536	6.004447826
0.430446202	5.800976531
0.433218491	5.546179678
0.435990779	5.29144013
0.438186424	5.089758056
0.440382069	4.888161828
0.442577714	4.686682086
0.444773359	4.485332733
0.447581307	4.228064234
0.450389256	3.971099717
0.452059716	3.818400015
0.453730176	3.66583111
0.456275398	3.433654147
0.45882062	3.201855782
0.461310854	2.975471149
0.463801088	2.749522017
0.466291323	2.524047329
0.468781557	2.299095045
0.471271791	2.074689654
0.473419197	1.881652418
0.475566603	1.689077015
0.477714008	1.496993996
0.480343823	1.262467143
0.482493967	1.071322839
0.484644112	0.88076196
0.487354408	0.641419241
0.490064703	0.403082684
0.492164895	0.219136834
0.494265087	0.035852572
0.496365279	-0.146739872
0.498465471	-0.32860956
0.501029717	-0.549654552
0.50323268	-0.738619914
0.505435643	-0.926704997
0.507638606	-1.113874508
0.509841569	-1.3000872
0.512044532	-1.485321901
0.514247495	-1.669535343
0.516516323	-1.858162161
0.518785152	-2.045646283
0.520757734	-2.207688328
0.522730317	-2.36881671
0.525373525	-2.583245466
0.527733936	-2.773252662
0.530094347	-2.961823483
0.532454758	-3.148922964
0.534815168	-3.334500605
0.537175579	-3.518521408
0.53953599	-3.700943433
0.54249791	-3.927521655
0.54545983	-4.151430444
0.548062344	-4.345904759
0.550172123	-4.50195514
0.552281903	-4.65654796
0.554779	-4.83758582
0.557276098	-5.01648206
0.559412758	-5.167816508
